<svg width="10" height="10" viewBox="0 0 14 14" fill="none" xmlns="http://www.w3.org/2000/svg">
<path fill-rule="evenodd" clip-rule="evenodd" d="M7 14C3.136 14 0 10.864 0 7C0 3.136 3.136 0 7 0C10.864 0 14 3.136 14 7C14 10.864 10.864 14 7 14ZM10.5 4.2C10.304 4.2 10.129 4.277 10.003 4.403L5.6 8.813L3.997 7.203C3.871 7.077 3.696 7 3.5 7C3.115 7 2.8 7.315 2.8 7.7C2.8 7.896 2.877 8.071 3.003 8.197L5.103 10.297C5.229 10.423 5.404 10.5 5.6 10.5C5.796 10.5 5.971 10.423 6.097 10.297L10.997 5.397C11.123 5.271 11.2 5.096 11.2 4.9C11.2 4.515 10.885 4.2 10.5 4.2Z" fill="#0EAB00"/>
</svg>
